<svg width="863" height="256" viewBox="0 0 863 256" fill="none" xmlns="http://www.w3.org/2000/svg">
<path d="M9.17872 83.0245L47.9129 77.3337V130.937C50.6053 124.451 54.644 119.495 60.0288 116.068C65.536 112.519 72.1447 110.744 79.8548 110.744C91.6036 110.744 100.782 114.966 107.391 123.411C114.122 131.733 117.488 143.298 117.488 158.106V204H78.937V154.251C78.937 148.989 77.7743 144.95 75.4491 142.135C73.2462 139.321 70.1254 137.913 66.0868 137.913C63.1496 137.913 60.2736 138.892 57.4588 140.85C54.644 142.686 52.3187 145.379 50.4829 148.928C48.7696 152.477 47.9129 156.515 47.9129 161.044V204H9.17872V83.0245ZM175.777 205.469C167.822 205.469 160.356 203.388 153.381 199.227C146.527 194.944 141.02 189.192 136.859 181.971C132.698 174.628 130.617 166.49 130.617 157.556C130.617 148.744 132.698 140.789 136.859 133.691C141.02 126.47 146.588 120.841 153.564 116.802C160.54 112.764 167.944 110.744 175.777 110.744C182.141 110.744 188.015 112.519 193.4 116.068C198.907 119.617 203.068 124.941 205.883 132.039V110.744H244.434V204H205.883V186.928C199.764 199.288 189.728 205.469 175.777 205.469ZM187.709 176.464C192.604 176.464 196.765 174.75 200.192 171.324C203.741 167.775 205.638 163.614 205.883 158.841V157.372C205.638 152.477 203.68 148.316 200.009 144.889C196.459 141.462 192.36 139.749 187.709 139.749C182.569 139.749 178.163 141.585 174.492 145.256C170.943 148.805 169.168 153.089 169.168 158.106C169.168 163.246 171.004 167.591 174.675 171.14C178.347 174.689 182.691 176.464 187.709 176.464ZM295.337 205.469C285.057 205.469 277.04 202.164 271.288 195.556C265.536 188.947 262.66 179.952 262.66 168.57V112.029H301.578V166.918C301.578 169.733 302.313 171.936 303.781 173.527C305.372 174.995 307.391 175.73 309.839 175.73C312.287 175.73 314.796 174.995 317.366 173.527L319.385 199.043C316.693 201.124 313.143 202.715 308.738 203.816C304.454 204.918 299.987 205.469 295.337 205.469ZM282.119 98.2612C276.367 98.2612 271.472 96.4866 267.433 92.9375C263.517 89.266 261.559 84.7991 261.559 79.5366C261.559 74.2741 263.64 69.8683 267.801 66.3192C271.962 62.7701 276.734 60.9956 282.119 60.9956C287.749 60.9956 292.583 62.8313 296.622 66.5028C300.783 70.1743 302.863 74.5189 302.863 79.5366C302.863 84.9214 300.783 89.3884 296.622 92.9375C292.461 96.4866 287.627 98.2612 282.119 98.2612Z" fill="#162B46"/>
<path d="M581.872 205.469C573.55 205.469 565.962 203.266 559.109 198.86C552.377 194.454 547.054 188.641 543.138 181.42C539.221 174.077 537.263 166.306 537.263 158.106C537.263 149.417 539.282 141.462 543.321 134.242C547.482 126.899 552.989 121.147 559.843 116.986C566.819 112.825 574.223 110.744 582.055 110.744C589.154 110.744 595.15 112.213 600.046 115.15C605.063 118.087 609.102 122.799 612.162 129.285V83.0245L650.896 77.3337V204H612.162V186.928C606.41 199.288 596.313 205.469 581.872 205.469ZM593.988 176.464C599.128 176.464 603.411 174.628 606.838 170.957C610.387 167.285 612.162 163.002 612.162 158.106V157.372C612.162 152.599 610.326 148.499 606.654 145.073C602.983 141.524 598.761 139.749 593.988 139.749C588.848 139.749 584.503 141.585 580.954 145.256C577.527 148.805 575.814 153.089 575.814 158.106C575.814 163.246 577.588 167.591 581.137 171.14C584.809 174.689 589.092 176.464 593.988 176.464ZM717.949 205.469C707.669 205.469 698.49 203.449 690.413 199.411C682.458 195.372 676.217 189.804 671.688 182.705C667.283 175.485 665.08 167.224 665.08 157.923C665.08 148.622 667.344 140.422 671.872 133.324C676.4 126.103 682.642 120.535 690.597 116.619C698.674 112.702 707.852 110.744 718.133 110.744C728.535 110.744 737.714 112.764 745.669 116.802C753.746 120.718 759.988 126.226 764.393 133.324C768.799 140.422 771.002 148.622 771.002 157.923C771.002 167.346 768.738 175.668 764.21 182.889C759.804 189.987 753.563 195.556 745.485 199.594C737.53 203.51 728.352 205.469 717.949 205.469ZM718.316 177.932C723.334 177.932 727.434 176.097 730.616 172.425C733.92 168.631 735.572 163.797 735.572 157.923C735.572 152.048 733.92 147.276 730.616 143.604C727.434 139.81 723.334 137.913 718.316 137.913C713.299 137.913 709.138 139.81 705.833 143.604C702.651 147.276 701.06 152.048 701.06 157.923C701.06 163.797 702.651 168.631 705.833 172.425C709.138 176.097 713.299 177.932 718.316 177.932ZM830.104 205.469C820.314 205.469 811.625 203.51 804.037 199.594C796.571 195.556 790.697 189.926 786.414 182.705C782.253 175.485 780.172 167.285 780.172 158.106C780.172 149.295 782.375 141.279 786.781 134.058C791.187 126.838 797.183 121.147 804.771 116.986C812.359 112.825 820.803 110.744 830.104 110.744C841.976 110.744 851.338 113.192 858.191 118.087L854.703 142.503C847.728 140.422 841.976 139.382 837.447 139.382C831.573 139.382 826.922 141.095 823.496 144.522C820.069 147.826 818.356 152.354 818.356 158.106C818.356 163.858 820.069 168.448 823.496 171.874C826.922 175.301 831.451 177.015 837.08 177.015C841.976 177.015 847.728 175.974 854.336 173.894L857.824 199.594C853.663 201.675 849.441 203.143 845.158 204C840.874 204.979 835.856 205.469 830.104 205.469Z" fill="#162B46"/>
<path d="M486.608 94.609C486.693 92.0113 486.523 89.4562 486.139 86.9437C486.012 86.2623 485.756 85.5384 485.628 84.857C485.16 81.7909 484.351 78.8099 483.371 75.8716C481.966 71.6557 480.135 67.6101 477.835 63.7774C475.706 60.1577 473.194 56.7935 470.383 53.6848C465.997 48.8727 461.057 44.8271 455.436 41.5481C450.325 38.5671 444.917 36.3953 439.211 34.9048C436.571 34.2235 433.93 33.7125 431.205 33.4569C429.885 33.3292 428.522 33.244 427.202 33.1588C425.371 33.0311 423.582 33.0311 421.751 33.1163C419.366 33.2014 416.981 33.4144 414.597 33.755C411.232 34.2661 407.953 35.0326 404.76 36.0546C402.29 36.8637 399.862 37.8432 397.52 38.9078C394.156 40.4835 390.962 42.3572 387.938 44.4864C385.767 46.0195 383.723 47.6803 381.764 49.4689C378.655 52.3221 375.844 55.4734 373.332 58.8802C370.223 63.1813 367.668 67.823 365.709 72.7629C364.048 76.9788 362.899 81.3225 362.175 85.7939C361.876 87.6676 361.706 89.5414 361.578 91.4151C361.408 93.7147 361.408 95.9717 361.493 98.2713C361.578 100.315 361.791 102.317 362.089 104.318C362.217 105.085 362.345 105.851 362.473 106.618C362.558 107.257 362.899 107.853 362.941 108.492C362.941 108.577 363.026 108.705 363.069 108.747C363.665 109.258 363.708 109.982 363.878 110.663C364.687 114.241 365.624 117.733 367.114 121.097C367.242 121.352 367.37 121.565 367.2 121.906C367.072 122.119 367.327 122.374 367.413 122.587C368.094 124.163 368.775 125.739 369.542 127.272C371.969 132.254 374.652 137.066 377.59 141.708C380.231 145.881 383.084 149.969 386.065 153.887C388.662 157.294 391.345 160.573 394.156 163.81C396.243 166.152 398.329 168.494 400.501 170.751C402.46 172.795 404.419 174.839 406.42 176.798C408.805 179.14 411.275 181.44 413.745 183.697C416.896 186.55 420.09 189.318 423.327 192.043C423.88 192.512 423.88 192.512 424.391 192.086C427.159 189.786 429.885 187.529 432.653 185.23C433.547 184.463 434.356 183.612 435.25 182.845C436.102 182.079 437.039 181.482 438.189 181.227C439.722 180.886 441.127 181.227 442.32 182.206C443.469 183.143 444.236 184.293 444.449 185.783C444.662 187.231 444.321 188.466 443.129 189.403C443.001 189.488 442.873 189.616 442.745 189.744C439.466 193.193 435.761 196.132 432.099 199.113C430.481 200.433 428.863 201.71 427.244 203.03C425.243 204.649 422.645 204.649 420.644 203.03C417.322 200.347 414.043 197.622 410.849 194.811C408.677 192.938 406.591 190.979 404.461 189.062C401.182 186.039 398.031 182.888 394.88 179.694C392.793 177.522 390.749 175.307 388.705 173.05C385.383 169.346 382.147 165.47 379.081 161.553C376.824 158.657 374.695 155.718 372.608 152.695C370.223 149.203 367.924 145.668 365.837 142.006C364.644 139.962 363.495 137.875 362.387 135.746C360.003 131.147 357.788 126.463 355.915 121.65C354.254 117.435 353.019 113.091 352.252 108.577C351.869 106.277 351.571 103.978 351.358 101.678C351.06 98.5694 351.017 95.4607 351.145 92.352C351.273 89.1155 351.699 85.9216 352.21 82.7278C353.147 77.2343 354.807 71.9112 356.979 66.801C358.768 62.5851 361.025 58.5821 363.622 54.7494C365.539 51.9814 367.583 49.3411 369.84 46.8286C371.714 44.7845 373.673 42.8256 375.759 40.9945C378.016 38.993 380.358 37.1618 382.828 35.501C385.894 33.4144 389.088 31.5406 392.452 29.965C395.348 28.6023 398.287 27.3673 401.31 26.4304C404.504 25.4084 407.698 24.5993 410.977 24.0031C413.404 23.5772 415.874 23.2791 418.344 23.0662C420.772 22.8959 423.241 22.7681 425.669 22.8533C428.309 22.9385 430.992 23.1514 433.632 23.5346C436.485 23.9605 439.296 24.4715 442.064 25.1955C446.28 26.3027 450.326 27.7506 454.286 29.5817C458.033 31.3277 461.61 33.3718 465.017 35.6714C466.21 36.4805 467.36 37.3322 468.509 38.2265C469.361 38.8652 470.34 39.2911 471.107 40.015C472.342 41.1648 473.619 42.2294 474.812 43.3792C477.793 46.275 480.518 49.3837 482.988 52.7479C485.032 55.5585 486.906 58.4969 488.524 61.6056C490.483 65.3105 492.101 69.1857 493.379 73.1887C494.486 76.5955 495.295 80.0875 495.849 83.622C496.19 85.6661 496.402 87.7102 496.573 89.7543C496.786 92.5223 496.828 95.2903 496.701 98.0584C496.573 100.954 496.275 103.807 495.764 106.661C495.636 107.257 495.636 107.257 496.232 107.555C496.488 107.683 496.658 107.81 496.786 108.066C496.871 108.279 497.169 108.407 497.382 108.577C498.702 109.514 499.98 110.536 501.172 111.6C503.983 114.07 506.367 116.881 508.284 120.075C510.626 123.95 512.116 128.123 512.84 132.552C513.266 135.278 513.394 138.003 513.224 140.771C513.011 144.093 512.414 147.372 511.179 150.48C510.668 151.715 509.944 152.865 509.306 154.058C507.9 156.613 506.495 159.168 505.09 161.723C503.344 164.917 501.598 168.111 499.894 171.262C498.106 174.498 496.36 177.777 494.571 181.014C494.358 181.397 494.358 181.695 494.529 182.079C497.297 188.04 493.805 194.982 487.161 196.132C481.668 197.068 476.473 193.278 475.621 187.87C474.727 182.206 478.73 176.883 484.521 176.372C485.117 176.33 485.714 176.33 486.267 176.372C486.65 176.415 486.821 176.287 486.991 175.946C488.184 173.689 489.419 171.475 490.653 169.218C492.91 165.087 495.167 160.956 497.424 156.826C499.128 153.717 500.831 150.608 502.535 147.457C502.961 146.69 503.131 145.839 503.344 145.03C504.11 142.091 504.281 139.068 504.068 136.044C503.812 132.254 502.748 128.677 500.874 125.355C499.639 123.141 498.106 121.182 496.317 119.393C494.571 117.647 492.612 116.114 490.483 114.794C489.504 114.198 488.396 113.815 487.332 113.389C485.203 112.58 482.988 111.984 480.731 111.643C478.943 111.387 477.154 111.345 475.365 111.43C470.042 111.728 465.315 113.687 461.1 116.838C459.439 118.073 457.948 119.521 456.543 121.097C455.819 121.949 455.35 122.971 454.839 123.907C453.179 126.931 451.56 129.912 449.9 132.935C448.579 135.363 447.259 137.748 445.982 140.175C444.534 142.858 443.043 145.583 441.553 148.223C441.34 148.649 441.34 148.862 441.638 149.245C443.129 151.247 443.853 153.504 443.64 156.016C443.256 160.019 441.212 162.873 437.55 164.406C432.951 166.365 427.798 164.661 425.158 160.403C424.306 159.04 423.88 157.507 423.752 155.889C423.54 152.865 424.519 150.225 426.648 148.096C428.139 146.605 429.97 145.668 432.099 145.37C432.653 145.285 433.036 145.072 433.334 144.519C434.782 141.793 436.315 139.11 437.805 136.385C439.168 133.872 440.531 131.402 441.894 128.89C443.682 125.611 445.513 122.332 447.302 119.01C447.6 118.457 447.898 117.946 448.154 117.392C449.048 115.689 450.325 114.326 451.646 112.963C455.308 109.216 459.652 106.405 464.506 104.531C467.317 103.424 470.213 102.7 473.279 102.445C474.642 102.317 475.962 102.189 477.324 102.232C479.965 102.274 482.562 102.572 485.117 103.126C485.245 103.169 485.373 103.211 485.458 103.211C485.927 103.296 485.969 103.254 486.012 102.828C486.395 100.273 486.693 97.4196 486.608 94.609Z" fill="#162B46"/>
</svg>
